<?xml version="1.0" encoding="utf-8"?>
<!-- Generator: Adobe Illustrator 21.0.0, SVG Export Plug-In . SVG Version: 6.00 Build 0)  -->
<svg version="1.1" id="Capa_1" xmlns="http://www.w3.org/2000/svg" xmlns:xlink="http://www.w3.org/1999/xlink" x="0px" y="0px"
	 viewBox="0 0 212.6 170.1" style="enable-background:new 0 0 212.6 170.1;" xml:space="preserve">
<style type="text/css">
	.st0{fill:url(#SVGID_1_);stroke:#000000;stroke-miterlimit:10;}
	.st1{fill:#DADADA;}
	.st2{fill:url(#SVGID_2_);stroke:#000000;stroke-width:2;stroke-miterlimit:10;}
	.st3{fill:url(#SVGID_3_);stroke:#000000;stroke-miterlimit:10;}
	.st4{fill:none;stroke:#000000;stroke-miterlimit:10;}
	.st5{enable-background:new    ;}
	.st6{fill:#FFFFFF;}
</style>
<g id="Capa_1_1_">
	<g>
		
			<image style="overflow:visible;enable-background:new    ;" width="303" height="165" xlink:href="A3100BB2.png"  transform="matrix(0.5902 0 0 0.9152 22.253 -33.8902)">
		</image>
	</g>
	<g>
		
			<image style="overflow:visible;enable-background:new    ;" width="301" height="106" xlink:href="A3100BB3.png"  transform="matrix(0.7619 1.740372e-03 -2.262781e-03 0.9906 -1.399 12.3533)">
		</image>
	</g>
	<g>
		
			<image style="overflow:visible;enable-background:new    ;" width="302" height="130" xlink:href="A3100BB4.png"  transform="matrix(0.7943 0 0 0.9615 -5.6265 26.6205)">
		</image>
	</g>
	<g>
		
			<image style="overflow:visible;enable-background:new    ;" width="302" height="135" xlink:href="A3100BB5.png"  transform="matrix(0.7531 0 0 0.9556 0.253 48.611)">
		</image>
	</g>
	<g>
		
			<image style="overflow:visible;enable-background:new    ;" width="303" height="160" xlink:href="A3100BB6.png"  transform="matrix(0.6099 0 0 0.9215 19.7416 63.8929)">
		</image>
	</g>
</g>
<g id="Capa_2_1_">
	<g id="Capa_2">
		
			<linearGradient id="SVGID_1_" gradientUnits="userSpaceOnUse" x1="26.2" y1="87.5" x2="190" y2="87.5" gradientTransform="matrix(1 0 0 -1 0 172.5)">
			<stop  offset="0" style="stop-color:#FF0095"/>
			<stop  offset="0.2525" style="stop-color:#6E00FF"/>
			<stop  offset="0.3104" style="stop-color:#5408FF"/>
			<stop  offset="0.3824" style="stop-color:#3B0FFF"/>
			<stop  offset="0.4478" style="stop-color:#2B13FF"/>
			<stop  offset="0.5" style="stop-color:#2615FF"/>
			<stop  offset="0.5517" style="stop-color:#2C13FF"/>
			<stop  offset="0.6229" style="stop-color:#3E0EFF"/>
			<stop  offset="0.705" style="stop-color:#5B06FF"/>
			<stop  offset="0.75" style="stop-color:#6E00FF"/>
			<stop  offset="1" style="stop-color:#FF0095"/>
		</linearGradient>
		<circle class="st0" cx="108.1" cy="85" r="81.9"/>
		<path class="st1" d="M145.8,106.1"/>
		
			<radialGradient id="SVGID_2_" cx="110.2681" cy="-89.1407" r="64.8853" gradientTransform="matrix(0.996 0 0 -0.5878 -1.477 12.8031)" gradientUnits="userSpaceOnUse">
			<stop  offset="0" style="stop-color:#FF0095"/>
			<stop  offset="0.2525" style="stop-color:#6E00FF"/>
			<stop  offset="0.3104" style="stop-color:#5408FF"/>
			<stop  offset="0.3824" style="stop-color:#3B0FFF"/>
			<stop  offset="0.4478" style="stop-color:#2B13FF"/>
			<stop  offset="0.5" style="stop-color:#2615FF"/>
			<stop  offset="0.5517" style="stop-color:#2C13FF"/>
			<stop  offset="0.6229" style="stop-color:#3E0EFF"/>
			<stop  offset="0.705" style="stop-color:#5B06FF"/>
			<stop  offset="0.75" style="stop-color:#6E00FF"/>
			<stop  offset="1" style="stop-color:#FF0095"/>
		</radialGradient>
		<polygon class="st2" points="108.4,4.6 177.4,125.8 39.3,125.8 		"/>
		
			<linearGradient id="SVGID_3_" gradientUnits="userSpaceOnUse" x1="162.9" y1="105.2" x2="54.4" y2="105.2" gradientTransform="matrix(1 0 0 -1 0 172.5)">
			<stop  offset="0" style="stop-color:#2615FF"/>
			<stop  offset="5.323001e-02" style="stop-color:#2C13FF"/>
			<stop  offset="0.1265" style="stop-color:#3E0EFF"/>
			<stop  offset="0.2111" style="stop-color:#5B06FF"/>
			<stop  offset="0.2574" style="stop-color:#6E00FF"/>
			<stop  offset="0.2759" style="stop-color:#8000F2"/>
			<stop  offset="0.3278" style="stop-color:#AD00D1"/>
			<stop  offset="0.3776" style="stop-color:#D100B7"/>
			<stop  offset="0.4242" style="stop-color:#EA00A4"/>
			<stop  offset="0.4663" style="stop-color:#FA0099"/>
			<stop  offset="0.5" style="stop-color:#FF0095"/>
			<stop  offset="0.75" style="stop-color:#6E00FF"/>
			<stop  offset="1" style="stop-color:#2615FF;stop-opacity:0.3"/>
		</linearGradient>
		<polygon class="st3" points="108.6,20.6 162.9,114 54.4,114 		"/>
		<line class="st4" x1="109.8" y1="85.6" x2="54.8" y2="114"/>
		<line class="st4" x1="108.6" y1="20.6" x2="109.8" y2="85.6"/>
		<line class="st4" x1="163.3" y1="114" x2="109.8" y2="85.6"/>
		<g id="Capa_1_2_">
			<g>
				
					<image style="overflow:visible;enable-background:new    ;" width="303" height="165" xlink:href="A3100BB1.png"  transform="matrix(0.5902 0 0 0.9152 22.253 -31.6697)">
				</image>
			</g>
			<g>
				
					<image style="overflow:visible;enable-background:new    ;" width="301" height="106" xlink:href="A3100B90.png"  transform="matrix(0.7619 1.740372e-03 -2.262781e-03 0.9906 -1.399 14.5738)">
				</image>
			</g>
			<g>
				
					<image style="overflow:visible;enable-background:new    ;" width="302" height="130" xlink:href="A3100B93.png"  transform="matrix(0.7943 0 0 0.9615 -5.6265 28.841)">
				</image>
			</g>
			<g>
				
					<image style="overflow:visible;enable-background:new    ;" width="302" height="135" xlink:href="A3100B96.png"  transform="matrix(0.7531 0 0 0.9556 0.253 50.8315)">
				</image>
			</g>
			<g>
				
					<image style="overflow:visible;enable-background:new    ;" width="303" height="160" xlink:href="9151AFD2.png"  transform="matrix(0.6099 0 0 0.9215 19.7416 66.1134)">
				</image>
			</g>
		</g>
		<line class="st4" x1="118" y1="126.3" x2="151.9" y2="133.1"/>
	</g>
</g>
<g id="Capa_2_2_">
	<g>
		<g class="st5">
			<path d="M109.3,75.8c0.5,1.5,1,3.1,1.6,4.8c0.5,1.7,1.1,3.4,1.6,5.2c0.5,1.8,1,3.5,1.5,5.3s0.9,3.5,1.4,5.2c0.1,0,0.1,0,0.2,0
				c0.2-2.3,0.4-4.3,0.9-6.2c0.4-1.9,1-3.6,1.7-5.1s1.4-2.7,2.3-3.7s1.8-1.6,2.7-1.9c0.8-0.3,1.5-0.3,2.2-0.2c0.7,0.1,1.4,0.4,2,0.8
				s1.2,0.9,1.7,1.5s0.9,1.3,1.3,2c0.4,0.7,0.7,1.5,1,2.3s0.5,1.5,0.7,2.2c0.5,1.9,0.7,3.8,0.7,5.5s-0.1,3.3-0.4,4.8
				c-0.3,1.5-0.7,2.8-1.3,3.9c-0.6,1.2-1.2,2.1-1.9,2.9s-1.5,1.4-2.4,1.8s-1.8,0.7-2.7,0.7c-1,0.1-2-0.1-3.1-0.4
				c-1-0.3-2.1-0.9-3.2-1.8c0.2,0.9,0.4,2,0.7,3.1c0.2,1.1,0.5,2.3,0.7,3.6c0.2,1.3,0.5,2.6,0.7,3.9s0.5,2.7,0.7,4
				c0.2,1.4,0.4,2.7,0.6,4s0.3,2.6,0.5,3.8c-1.2,0-1.7,0-2.9-0.1c-0.1,0-0.2,0-0.3-0.1c-0.1-1.5-0.3-3-0.5-4.6s-0.4-3.2-0.7-4.9
				c-0.3-1.7-0.5-3.3-0.9-5c-0.3-1.7-0.7-3.3-1-4.8c-0.4-1.6-0.7-3.1-1.1-4.5s-0.8-2.7-1.1-3.9c-0.6-1.9-1.2-3.7-1.8-5.7
				c-0.7-1.9-1.4-3.8-2.1-5.7c-0.7-1.9-1.5-3.6-2.2-5.3c-0.8-1.7-1.5-3.3-2.2-4.7c-0.1-0.2-0.1-0.5-0.1-0.7c0.1-0.2,0.2-0.5,0.4-0.7
				c0.2-0.2,0.5-0.4,0.8-0.6s0.6-0.3,0.9-0.5C107.5,76,108.3,75.8,109.3,75.8z M117.2,103.7c1.1,0.7,2.2,1.2,3.1,1.6
				c1,0.3,1.9,0.5,2.8,0.4c1.2-0.1,2.2-0.5,3.1-1.1c0.9-0.7,1.6-1.6,2.1-2.9c0.5-1.3,0.8-2.8,0.8-4.6c0-1.8-0.2-3.9-0.8-6.2
				c-0.2-0.9-0.5-1.7-0.9-2.6s-0.8-1.6-1.2-2.3c-0.5-0.7-1-1.2-1.5-1.5c-0.6-0.3-1.1-0.4-1.7-0.3c-0.7,0.2-1.3,0.6-1.9,1.1
				c-0.6,0.6-1.1,1.2-1.5,2s-0.8,1.7-1.1,2.6s-0.6,1.9-0.8,3c-0.2,1-0.4,2-0.5,3.1c-0.1,1-0.2,2-0.2,3c0,0.9,0,1.8,0,2.7
				C117,102.4,117.1,103.1,117.2,103.7z"/>
			<path d="M151.1,58.9c0.3,2.3,0.7,4.8,1,7.3c0.3,2.6,0.6,5.1,0.8,7.7s0.5,5.2,0.6,7.8c0.2,2.6,0.3,5.1,0.4,7.6c0.1,0,0.1,0,0.2,0
				c0.6-3.2,1.2-6.1,1.9-8.8c0.7-2.7,1.5-5,2.3-7s1.7-3.7,2.7-4.9c0.9-1.3,1.9-2.1,2.9-2.4c0.8-0.3,1.5-0.3,2.2,0s1.3,0.7,1.8,1.3
				c0.5,0.6,1,1.4,1.4,2.3s0.7,1.9,1,3c0.3,1,0.5,2.1,0.7,3.2s0.3,2.2,0.3,3.1c0.2,2.7,0.1,5.2-0.1,7.6s-0.7,4.5-1.2,6.5
				s-1.2,3.7-1.9,5.3c-0.8,1.5-1.6,2.8-2.4,3.9c-0.9,1.1-1.8,1.9-2.7,2.4c-0.9,0.6-1.9,0.9-2.8,0.9c-1,0.1-2-0.2-2.9-0.7
				c-1-0.5-1.9-1.4-2.8-2.6c0,1.3,0,2.8,0,4.3c0,1.6,0,3.2-0.1,5c0,1.7-0.1,3.5-0.2,5.4c-0.1,1.8-0.2,3.7-0.3,5.5s-0.3,3.6-0.4,5.4
				c-0.2,1.8-0.3,3.4-0.5,5c-1.2,0-1.8,0-3,0.1c-0.1,0-0.2,0-0.3-0.1c0.3-1.9,0.5-4,0.7-6.2s0.4-4.4,0.6-6.6
				c0.2-2.3,0.3-4.5,0.4-6.9c0.1-2.3,0.1-4.6,0.1-6.8c0-2.2,0-4.3-0.1-6.4c-0.1-2-0.2-3.9-0.3-5.7c-0.2-2.7-0.4-5.5-0.7-8.3
				s-0.6-5.7-1.1-8.5c-0.4-2.8-0.9-5.5-1.3-8.2s-1-5.1-1.5-7.4c-0.1-0.4-0.1-0.7,0-1.1c0.1-0.3,0.3-0.6,0.5-0.9
				c0.2-0.3,0.5-0.5,0.8-0.7s0.6-0.4,0.9-0.5C149.3,58.7,150.2,58.7,151.1,58.9z M154.4,99.9c1,1,1.9,1.8,2.8,2.3
				c0.9,0.5,1.8,0.7,2.7,0.6c1.2-0.1,2.2-0.6,3.2-1.5s1.8-2.2,2.6-3.9c0.7-1.7,1.3-3.8,1.6-6.3s0.4-5.4,0.2-8.6
				c-0.1-1.2-0.2-2.4-0.4-3.7c-0.2-1.2-0.5-2.3-0.9-3.3s-0.8-1.7-1.3-2.3c-0.5-0.5-1-0.7-1.6-0.6c-0.7,0.2-1.4,0.7-2,1.4
				c-0.6,0.7-1.2,1.6-1.7,2.7s-1,2.3-1.5,3.6c-0.4,1.3-0.9,2.7-1.2,4.1c-0.4,1.4-0.7,2.9-1,4.3c-0.3,1.5-0.5,2.8-0.8,4.2
				c-0.2,1.3-0.4,2.6-0.5,3.8C154.4,98,154.4,99,154.4,99.9z"/>
		</g>
	</g>
</g>
<g>
	<g>
		<path class="st6" d="M87.3,40.5c-2,3.3-4.3,6.1-6.9,8.2l-4.3,3.7c-6.5,6.3-11.2,11.3-13.9,15c-5,6.8-7.7,13.6-8.1,20.4
			c-0.5,7.6,1.6,14.9,6,21.6c4.7,7.1,10.6,11,17.6,11.5c1.6,0.1,3.4,0.1,4.8,0l-0.5-5.3c-1,0.1-2.1,0.1-3.2,0
			c-4.6-0.3-8.7-2.4-12.2-6.1c-3.7-3.9-5.3-8.1-5-13C62,87.1,67.6,77.9,78,69l4.7-4c4.1-3.8,7.4-8.5,9.9-14.2
			c2.4-5.6,3.8-11.6,4.2-17.9c0.2-3.7-0.3-8.3-1.4-13.7c-1.6-7.3-3.8-11-6.9-11.2c-1.1-0.1-2.3,0.5-3.7,1.9
			c-3.5,3.5-6.1,7.6-7.7,12.4c-1.2,3.7-2,8.5-2.3,14.5c-0.2,2.5,0.2,7.1,0.9,12.7l4.3-4.3c0-0.6,0-1.3,0-2c0.2-3.8,1.1-8,2.6-12.3
			c1.9-5.4,3.8-7.1,4.9-7.5c0.3-0.1,0.6-0.2,1-0.1c1.6,0.1,3.1,0.8,2.8,5.3C91.1,32.4,89.8,36.4,87.3,40.5z"/>
		<path class="st6" d="M91.1,118.4c2.8-1.4,5.2-3.4,7.1-6.2c2.5-3.5,3.9-7.6,4.1-12.2c0.4-5.7-0.9-10.8-3.7-15.3
			c-3.1-4.9-7.3-7.6-12.6-7.9c-0.6,0-1.2,0-1.9,0L83,67.9l-4.7,3.8l0.7,6.4c-2.8,1.3-5.3,3.3-7.3,5.9c-2.4,3.1-3.7,6.6-3.9,10.2
			c-0.2,3.8,0.6,7.3,2.3,10.3c0.9,1.6,2.2,3.1,3.7,4.3c2.4,1.9,5.2,1.8,5.6,0.7c0.4-1-1.2-2.7-2.5-4.9c-0.7-1.2-1.1-2.7-1.1-4.5
			c0-3.7,2.1-6.9,5-8.3l2.8,23.3l0.6,5.4c0.4,2.6,0.8,5.1,1.2,7.7c0.5,3.4,0.7,6.4,0.5,8.8c-0.2,3.4-1.2,6.1-2.9,8.2
			c-1.1,1.3-2.4,2.1-3.8,2.6c1.9-2.1,3.1-5,3.1-8.2c0-6.4-4.8-11.5-10.7-11.5c-1.6,0-3.2,0.4-4.6,1.1c-0.2,0.1-0.3,0.2-0.5,0.3
			c-0.4,0.2-0.8,0.4-1.1,0.7c-0.1,0.1-0.2,0.2-0.4,0.3c-2.4,2-3.9,5.1-4.1,8.6c0,0,0,0,0,0c0,0,0,0,0,0c0,0.2,0,0.3,0,0.5
			c0,0.1,0,0.3,0,0.4c0,3.7,1.4,7,4.3,9.6c2.7,2.5,6,3.8,9.7,4.1c2.1,0.1,4.1-0.1,6.1-0.8c1.6-0.5,3.1-1.4,4.5-2.5
			c3.4-2.7,5.2-6.1,5.5-10.3c0.2-3.2,0-7-0.5-11.3l-1.4-9.7l-3.5-27.9c3.9,0.8,6.8,4.5,6.8,9c0,3.2-0.9,8.1-2.7,10.8L91.1,118.4z"/>
	</g>
	<g>
	</g>
	<g>
	</g>
	<g>
	</g>
	<g>
	</g>
	<g>
	</g>
	<g>
	</g>
	<g>
	</g>
	<g>
	</g>
	<g>
	</g>
	<g>
	</g>
	<g>
	</g>
	<g>
	</g>
	<g>
	</g>
	<g>
	</g>
	<g>
	</g>
</g>
<g>
	<g>
		<path d="M90.1,40.5c-2,3.3-4.3,6.1-6.9,8.2l-4.3,3.7c-6.5,6.3-11.2,11.3-13.9,15c-5,6.8-7.7,13.6-8.1,20.4
			c-0.5,7.6,1.6,14.9,6,21.6c4.7,7.1,10.6,11,17.6,11.5c1.6,0.1,3.4,0.1,4.8,0l-0.5-5.3c-1,0.1-2.1,0.1-3.2,0
			c-4.6-0.3-8.7-2.4-12.2-6.1c-3.7-3.9-5.3-8.1-5-13c0.6-9.3,6.1-18.5,16.6-27.3l4.7-4c4.1-3.8,7.4-8.5,9.9-14.2
			c2.4-5.6,3.8-11.6,4.2-17.9c0.2-3.7-0.3-8.3-1.4-13.7c-1.6-7.3-3.8-11-6.9-11.2c-1.1-0.1-2.3,0.5-3.7,1.9
			c-3.5,3.5-6.1,7.6-7.7,12.4c-1.2,3.7-2,8.5-2.3,14.5c-0.2,2.5,0.2,7.1,0.9,12.7l4.3-4.3c0-0.6,0-1.3,0-2c0.2-3.8,1.1-8,2.6-12.3
			c1.9-5.4,3.8-7.1,4.9-7.5c0.3-0.1,0.6-0.2,1-0.1c1.6,0.1,3.1,0.8,2.8,5.3C93.9,32.4,92.6,36.4,90.1,40.5z"/>
		<path d="M93.9,118.4c2.8-1.4,5.2-3.4,7.1-6.2c2.5-3.5,3.9-7.6,4.1-12.2c0.4-5.7-0.9-10.8-3.7-15.3c-3.1-4.9-7.3-7.6-12.6-7.9
			c-0.6,0-1.2,0-1.9,0l-1.1-9.1l-4.7,3.8l0.7,6.4c-2.8,1.3-5.3,3.3-7.3,5.9c-2.4,3.1-3.7,6.6-3.9,10.2c-0.2,3.8,0.6,7.3,2.3,10.3
			c0.9,1.6,2.2,3.1,3.7,4.3c2.4,1.9,5.2,1.8,5.6,0.7c0.4-1-1.2-2.7-2.5-4.9c-0.7-1.2-1.1-2.7-1.1-4.5c0-3.7,2.1-6.9,5-8.3l2.8,23.3
			l0.6,5.4c0.4,2.6,0.8,5.1,1.2,7.7c0.5,3.4,0.7,6.4,0.5,8.8c-0.2,3.4-1.2,6.1-2.9,8.2c-1.1,1.3-2.4,2.1-3.8,2.6
			c1.9-2.1,3.1-5,3.1-8.2c0-6.4-4.8-11.5-10.7-11.5c-1.6,0-3.2,0.4-4.6,1.1c-0.2,0.1-0.3,0.2-0.5,0.3c-0.4,0.2-0.8,0.4-1.1,0.7
			c-0.1,0.1-0.2,0.2-0.4,0.3c-2.4,2-3.9,5.1-4.1,8.6c0,0,0,0,0,0c0,0,0,0,0,0c0,0.2,0,0.3,0,0.5c0,0.1,0,0.3,0,0.4
			c0,3.7,1.4,7,4.3,9.6c2.7,2.5,6,3.8,9.7,4.1c2.1,0.1,4.1-0.1,6.1-0.8c1.6-0.5,3.1-1.4,4.5-2.5c3.4-2.7,5.2-6.1,5.5-10.3
			c0.2-3.2,0-7-0.5-11.3l-1.4-9.7l-3.5-27.9c3.9,0.8,6.8,4.5,6.8,9c0,3.2-0.9,8.1-2.7,10.8L93.9,118.4z"/>
	</g>
	<g>
	</g>
	<g>
	</g>
	<g>
	</g>
	<g>
	</g>
	<g>
	</g>
	<g>
	</g>
	<g>
	</g>
	<g>
	</g>
	<g>
	</g>
	<g>
	</g>
	<g>
	</g>
	<g>
	</g>
	<g>
	</g>
	<g>
	</g>
	<g>
	</g>
</g>
</svg>
